<svg xmlns="http://www.w3.org/2000/svg" viewBox="0 0 640 320" fill="none">
  <path fill="#0038A8" d="M184 0h456v160H184z" />
  <path fill="#CE1126" d="M184 160h456v160H184z" />
  <path fill="#fff" d="M0 0l276.8 160L0 320V0z" />
  <circle cx="86" cy="160" r="28" fill="#FCD116" />
  <g fill="#FCD116">
    <path d="m86 111.2 6.2 18.8h19.8l-16 11.6 6.1 18.8L86 148.8l-16.1 11.6 6.1-18.8-16-11.6h19.8L86 111.2Z" />
    <path d="m86 209.6 6.2 18.8h19.8l-16 11.6 6.1 18.8L86 247.2l-16.1 11.6 6.1-18.8-16-11.6h19.8l6.2-18.8Z" />
    <path d="m40.6 160 6.2 18.8h19.7l-15.9 11.6 6.1 18.8-16.1-11.6-16 11.6 6.1-18.8-16-11.6h19.8l6.1-18.8Z" />
  </g>
</svg>
