<svg xmlns="http://www.w3.org/2000/svg" viewBox="0 0 24 24" fill="none">
  <path
    fill="#fff"
    d="M12 .5C5.649.5.5 5.649.5 12a11.5 11.5 0 0 0 7.86 10.917c.575.106.785-.25.785-.556 0-.274-.01-1-.015-1.962-3.197.695-3.872-1.54-3.872-1.54-.523-1.327-1.277-1.68-1.277-1.68-1.044-.714.079-.7.079-.7 1.154.082 1.76 1.185 1.76 1.185 1.026 1.758 2.692 1.25 3.348.956.104-.743.402-1.25.731-1.537-2.552-.29-5.236-1.276-5.236-5.68 0-1.255.448-2.282 1.183-3.087-.118-.29-.513-1.457.112-3.038 0 0 .964-.309 3.16 1.18A10.99 10.99 0 0 1 12 6.032c.98.004 1.968.133 2.89.39 2.194-1.49 3.156-1.18 3.156-1.18.627 1.58.232 2.747.114 3.038.737.805 1.181 1.832 1.181 3.087 0 4.415-2.688 5.387-5.249 5.671.413.355.781 1.056.781 2.129 0 1.538-.014 2.778-.014 3.156 0 .308.207.667.79.554A11.5 11.5 0 0 0 23.5 12C23.5 5.649 18.351.5 12 .5Z"
  />
</svg>
